<?xml version="1.0" encoding="UTF-8" standalone="no"?>
<svg
   width="22.611206cm"
   height="21.167574cm"
   viewBox="0 0 226.11206 211.67574"
   version="1.1"
   id="svg4"
   sodipodi:docname="wasmtime-hs.svg"
   inkscape:version="1.3-beta (cedbd6c, 2023-05-28)"
   inkscape:export-filename="wasmtime-hs.png"
   inkscape:export-xdpi="35.998455"
   inkscape:export-ydpi="35.998455"
   xmlns:inkscape="http://www.inkscape.org/namespaces/inkscape"
   xmlns:sodipodi="http://sodipodi.sourceforge.net/DTD/sodipodi-0.dtd"
   xmlns="http://www.w3.org/2000/svg"
   xmlns:svg="http://www.w3.org/2000/svg">
  <defs
     id="defs4" />
  <sodipodi:namedview
     id="namedview4"
     pagecolor="#ffffff"
     bordercolor="#000000"
     borderopacity="0.25"
     inkscape:showpageshadow="2"
     inkscape:pageopacity="0.0"
     inkscape:pagecheckerboard="0"
     inkscape:deskcolor="#d1d1d1"
     inkscape:document-units="cm"
     inkscape:zoom="0.79746867"
     inkscape:cx="220.69833"
     inkscape:cy="471.49188"
     inkscape:window-width="1728"
     inkscape:window-height="1051"
     inkscape:window-x="0"
     inkscape:window-y="38"
     inkscape:window-maximized="0"
     inkscape:current-layer="svg4"
     showgrid="false" />
  <g
     style="fill:#666666"
     id="g3"
     transform="translate(19.866283,46.107171)" />
  <g
     id="g8"
     style="fill:#3ef79a;fill-opacity:1"
     transform="translate(19.866283,46.107171)">
    <path
       d="M 136.66667,85 123.33333,65 H 170 v 20"
       id="path2"
       style="fill:#3ef79a;fill-opacity:1" />
    <circle
       style="fill:#3ef79a;fill-opacity:1;stroke-width:0.263393"
       id="path5-3"
       cx="170.0463"
       cy="74.996819"
       r="10.001607" />
  </g>
  <g
     id="g10">
    <path
       d="M 136.53296,101.10717 123.19962,81.107171 h 66.66667 v 19.999999"
       id="path3"
       style="fill:#3ef79a;fill-opacity:1" />
    <circle
       style="fill:#3ef79a;fill-opacity:1;stroke-width:0.263393"
       id="path5-3-5"
       cx="189.86931"
       cy="91.112213"
       r="10.001607" />
  </g>
  <circle
     style="fill:#3ef79a;fill-opacity:1;stroke-width:0.263393"
     id="path5-3-5-1"
     cx="216.11044"
     cy="91.08886"
     r="10.001607" />
  <g
     id="g11">
    <path
       d="m 19.866283,166.10717 40,-60 -40,-59.999999 20.391969,-13.61834 49.608031,73.618339 -50.014012,74.2293"
       id="path1"
       sodipodi:nodetypes="cccccc"
       style="fill:#8654d6;fill-opacity:1" />
    <circle
       style="fill:#8654d6;fill-opacity:1;stroke-width:0.2731"
       id="path8"
       cx="29.934647"
       cy="39.109924"
       r="12.259427" />
    <path
       style="fill:#8654d6;fill-opacity:1;stroke-width:0.2731"
       id="path8-8"
       sodipodi:type="arc"
       sodipodi:cx="29.910814"
       sodipodi:cy="173.15982"
       sodipodi:rx="12.259427"
       sodipodi:ry="12.259427"
       sodipodi:start="0"
       sodipodi:end="6.2810714"
       sodipodi:arc-type="slice"
       d="m 42.170241,173.15982 a 12.259427,12.259427 0 0 1 -12.252948,12.25943 12.259427,12.259427 0 0 1 -12.265899,-12.24647 12.259427,12.259427 0 0 1 12.239984,-12.27237 12.259427,12.259427 0 0 1 12.278836,12.2335 l -12.2594,0.0259 z" />
  </g>
  <path
     style="fill:#8654d6;fill-opacity:1;stroke-width:0.2731"
     id="path8-8-7"
     sodipodi:type="arc"
     sodipodi:cx="12.259427"
     sodipodi:cy="199.41631"
     sodipodi:rx="12.259427"
     sodipodi:ry="12.259427"
     sodipodi:start="0"
     sodipodi:end="6.2810714"
     sodipodi:arc-type="slice"
     d="M 24.518854,199.41631 A 12.259427,12.259427 0 0 1 12.265906,211.67573 12.259427,12.259427 0 0 1 6.8478143e-6,199.42926 12.259427,12.259427 0 0 1 12.239991,187.15689 a 12.259427,12.259427 0 0 1 12.278836,12.2335 l -12.2594,0.0259 z" />
  <circle
     style="fill:#03dde8;fill-opacity:1;stroke-width:1.23228"
     id="path5-8"
     cx="51.500893"
     cy="12.093709"
     r="12.093709" />
  <g
     id="g9">
    <g
       style="fill:#03dde8;fill-opacity:1"
       id="g4"
       transform="translate(19.866283,46.107171)">
      <path
         d="M 40,120 80,60 40,0 60.110892,-13.363659 150,120 129.22092,133.76457 95,82.5 61.179985,134.56639"
         id="path4"
         sodipodi:nodetypes="cccccccc"
         style="fill:#03dde8;fill-opacity:1" />
    </g>
    <circle
       style="fill:#03dde8;fill-opacity:1;stroke-width:1.23228"
       id="path5"
       cx="69.501396"
       cy="38.797802"
       r="12.093709" />
    <circle
       style="fill:#03dde8;fill-opacity:1;stroke-width:1.26705"
       id="path5-0"
       cx="159.68352"
       cy="173.30115"
       r="12.434916" />
    <circle
       style="fill:#03dde8;fill-opacity:1;stroke-width:1.30779"
       id="path5-0-5"
       cx="70.296303"
       cy="173.66777"
       r="12.834723" />
  </g>
</svg>
