<?xml version="1.0" encoding="UTF-8" standalone="no"?>
<svg
   width="22.611206cm"
   height="21.167574cm"
   viewBox="0 0 226.11206 211.67574"
   version="1.1"
   id="svg4"
   sodipodi:docname="wasmtime-hs.svg"
   inkscape:version="1.3-beta (cedbd6c, 2023-05-28)"
   inkscape:export-filename="wasmtime-hs.png"
   inkscape:export-xdpi="17.999228"
   inkscape:export-ydpi="17.999228"
   xmlns:inkscape="http://www.inkscape.org/namespaces/inkscape"
   xmlns:sodipodi="http://sodipodi.sourceforge.net/DTD/sodipodi-0.dtd"
   xmlns="http://www.w3.org/2000/svg"
   xmlns:svg="http://www.w3.org/2000/svg">
  <defs
     id="defs4" />
  <sodipodi:namedview
     id="namedview4"
     pagecolor="#ffffff"
     bordercolor="#000000"
     borderopacity="0.25"
     inkscape:showpageshadow="2"
     inkscape:pageopacity="0.0"
     inkscape:pagecheckerboard="0"
     inkscape:deskcolor="#d1d1d1"
     inkscape:document-units="cm"
     inkscape:zoom="1.177265"
     inkscape:cx="445.94887"
     inkscape:cy="381.39246"
     inkscape:window-width="3840"
     inkscape:window-height="1387"
     inkscape:window-x="0"
     inkscape:window-y="25"
     inkscape:window-maximized="0"
     inkscape:current-layer="svg4"
     showgrid="false" />
  <g
     style="fill:#666666"
     id="g3"
     transform="translate(19.866283,46.107171)" />
  <g
     id="g8"
     style="fill:#3ef79a;fill-opacity:1"
     transform="translate(19.866283,46.107171)">
    <path
       d="M 136.66667,85 123.33333,65 H 170 v 20"
       id="path2"
       style="fill:#3ef79a;fill-opacity:1" />
    <circle
       style="fill:#3ef79a;fill-opacity:1;stroke-width:0.263393"
       id="path5-3"
       cx="170.0463"
       cy="74.996819"
       r="10.001607" />
  </g>
  <g
     id="g10">
    <path
       d="M 136.53296,101.10717 123.19962,81.107171 h 40.68922 l 0.25203,20.001469"
       id="path3"
       style="fill:#3ef79a;fill-opacity:1"
       sodipodi:nodetypes="cccc" />
    <circle
       style="fill:#3ef79a;fill-opacity:1;stroke-width:0.263393"
       id="path5-3-5"
       cx="189.86931"
       cy="91.112213"
       r="10.001607" />
  </g>
  <circle
     style="fill:#3ef79a;fill-opacity:1;stroke-width:0.263393"
     id="path5-3-5-1"
     cx="164.04999"
     cy="91.109093"
     r="10.001607" />
  <g
     id="g11">
    <path
       d="m 37.803062,139.41927 22.063221,-33.3121 -40,-59.999999 20.391969,-13.61834 49.608031,73.618339 -31.846958,47.05722"
       id="path1"
       sodipodi:nodetypes="cccccc"
       style="fill:#8654d6;fill-opacity:1" />
    <circle
       style="fill:#8654d6;fill-opacity:1;stroke-width:0.2731"
       id="path8"
       cx="29.934647"
       cy="39.109924"
       r="12.259427" />
    <path
       style="fill:#8654d6;fill-opacity:1;stroke-width:0.2731"
       id="path8-8"
       sodipodi:type="arc"
       sodipodi:cx="29.910814"
       sodipodi:cy="173.15982"
       sodipodi:rx="12.259427"
       sodipodi:ry="12.259427"
       sodipodi:start="0"
       sodipodi:end="6.2810714"
       sodipodi:arc-type="slice"
       d="m 42.170241,173.15982 a 12.259427,12.259427 0 0 1 -12.252948,12.25943 12.259427,12.259427 0 0 1 -12.265899,-12.24647 12.259427,12.259427 0 0 1 12.239984,-12.27237 12.259427,12.259427 0 0 1 12.278836,12.2335 l -12.2594,0.0259 z" />
  </g>
  <path
     style="fill:#8654d6;fill-opacity:1;stroke-width:0.2731"
     id="path8-8-7"
     sodipodi:type="arc"
     sodipodi:cx="47.999329"
     sodipodi:cy="146.21878"
     sodipodi:rx="12.259427"
     sodipodi:ry="12.259427"
     sodipodi:start="0"
     sodipodi:end="6.2810714"
     sodipodi:arc-type="slice"
     d="m 60.258756,146.21878 a 12.259427,12.259427 0 0 1 -12.252949,12.25943 12.259427,12.259427 0 0 1 -12.265899,-12.24647 12.259427,12.259427 0 0 1 12.239984,-12.27237 12.259427,12.259427 0 0 1 12.278836,12.2335 l -12.259399,0.0259 z" />
  <circle
     style="fill:#03dde8;fill-opacity:1;stroke-width:1.23228"
     id="path5-8"
     cx="87.055588"
     cy="64.663437"
     r="12.093709" />
  <g
     id="g9">
    <g
       style="fill:#03dde8;fill-opacity:1"
       id="g4"
       transform="translate(19.866283,46.107171)">
      <path
         d="M 40,120 80,60 56.796289,24.718901 77.201885,11.83345 150,120 129.22092,133.76457 95,82.5 61.179985,134.56639"
         id="path4"
         sodipodi:nodetypes="cccccccc"
         style="fill:#03dde8;fill-opacity:1" />
    </g>
    <circle
       style="fill:#03dde8;fill-opacity:1;stroke-width:1.23228"
       id="path5"
       cx="69.501396"
       cy="38.797802"
       r="12.093709" />
    <circle
       style="fill:#03dde8;fill-opacity:1;stroke-width:1.26705"
       id="path5-0"
       cx="159.68352"
       cy="173.30115"
       r="12.434916" />
    <circle
       style="fill:#03dde8;fill-opacity:1;stroke-width:1.30779"
       id="path5-0-5"
       cx="70.296303"
       cy="173.66777"
       r="12.834723" />
  </g>
</svg>
